{
  "accessors": [
    {
      "bufferView": 2,
      "componentType": 5126,
      "count": 2763,
      "max": [
        112.90699005126953,
        101.80316925048828,
        24.647890090942383
      ],
      "min": [
        -109.39608001708984,
        -42.5495719909668,
        -44.47930908203125
      ],
      "type": "VEC3"
    },
    {
      "bufferView": 2,
      "byteOffset": 33156,
      "componentType": 5126,
      "count": 2763,
      "max": [
        1.0,
        1.0,
        1.0
      ],
      "min": [
        -1.0,
        -1.0,
        -1.0
      ],
      "type": "VEC3"
    },
    {
      "bufferView": 3,
      "componentType": 5126,
      "count": 2763,
      "max": [
        1.0,
        1.0,
        1.0,
        1.0
      ],
      "min": [
        -1.0,
        -1.0,
        -1.0,
        -1.0
      ],
      "type": "VEC4"
    },
    {
      "bufferView": 1,
      "componentType": 5126,
      "count": 2763,
      "max": [
        0.7790591716766357,
        0.7884547114372253
      ],
      "min": [
        0.058511883020401,
        0.01898164488375187
      ],
      "type": "VEC2"
    },
    {
      "bufferView": 0,
      "componentType": 5125,
      "count": 4404,
      "type": "SCALAR"
    },
    {
      "bufferView": 2,
      "byteOffset": 66312,
      "componentType": 5126,
      "count": 3360,
      "max": [
        124.77879333496094,
        300.2434387207031,
        44.81360626220703
      ],
      "min": [
        -113.76055145263672,
        -41.88875198364258,
        -42.67726135253906
      ],
      "type": "VEC3"
    },
    {
      "bufferView": 2,
      "byteOffset": 106632,
      "componentType": 5126,
      "count": 3360,
      "max": [
        1.0,
        0.9999508261680603,
        1.0
      ],
      "min": [
        -1.0,
        -1.0,
        -1.0
      ],
      "type": "VEC3"
    },
    {
      "bufferView": 3,
      "byteOffset": 44208,
      "componentType": 5126,
      "count": 3360,
      "max": [
        1.0,
        1.0,
        1.0,
        1.0
      ],
      "min": [
        -1.0,
        -1.0,
        -1.0,
        -1.0
      ],
      "type": "VEC4"
    },
    {
      "bufferView": 1,
      "byteOffset": 22104,
      "componentType": 5126,
      "count": 3360,
      "max": [
        0.9923731684684753,
        0.999500036239624
      ],
      "min": [
        0.0005000081728212535,
        0.00512040127068758
      ],
      "type": "VEC2"
    },
    {
      "bufferView": 0,
      "byteOffset": 17616,
      "componentType": 5125,
      "count": 10566,
      "type": "SCALAR"
    },
    {
      "bufferView": 2,
      "byteOffset": 146952,
      "componentType": 5126,
      "count": 2264,
      "max": [
        108.28250122070313,
        85.03656005859375,
        25.044584274291992
      ],
      "min": [
        -107.97583770751953,
        -36.34769821166992,
        -42.79065704345703
      ],
      "type": "VEC3"
    },
    {
      "bufferView": 2,
      "byteOffset": 174120,
      "componentType": 5126,
      "count": 2264,
      "max": [
        1.0,
        1.0,
        1.0
      ],
      "min": [
        -1.0,
        -1.0,
        -1.0
      ],
      "type": "VEC3"
    },
    {
      "bufferView": 3,
      "byteOffset": 97968,
      "componentType": 5126,
      "count": 2264,
      "max": [
        1.0,
        1.0,
        1.0,
        1.0
      ],
      "min": [
        -1.0,
        -1.0,
        -0.9999995827674866,
        -1.0
      ],
      "type": "VEC4"
    },
    {
      "bufferView": 1,
      "byteOffset": 48984,
      "componentType": 5126,
      "count": 2264,
      "max": [
        0.6852593421936035,
        0.8299388289451599
      ],
      "min": [
        0.0005000000237487257,
        0.0005000000237487257
      ],
      "type": "VEC2"
    },
    {
      "bufferView": 0,
      "byteOffset": 59880,
      "componentType": 5125,
      "count": 4818,
      "type": "SCALAR"
    },
    {
      "bufferView": 2,
      "byteOffset": 201288,
      "componentType": 5126,
      "count": 573,
      "max": [
        86.35826873779297,
        5.742225646972656,
        41.83281707763672
      ],
      "min": [
        -66.7364730834961,
        -37.152217864990234,
        -32.463844299316406
      ],
      "type": "VEC3"
    },
    {
      "bufferView": 2,
      "byteOffset": 208164,
      "componentType": 5126,
      "count": 573,
      "max": [
        0.9820443391799927,
        0.9820437431335449,
        0.9820432662963867
      ],
      "min": [
        -0.9820441007614136,
        -1.0,
        -0.9786226749420166
      ],
      "type": "VEC3"
    },
    {
      "bufferView": 3,
      "byteOffset": 134192,
      "componentType": 5126,
      "count": 573,
      "max": [
        0.9988290071487427,
        0.3162611424922943,
        0.9797675013542175,
        1.0
      ],
      "min": [
        -1.0,
        -0.998833417892456,
        -0.9988386034965515,
        1.0
      ],
      "type": "VEC4"
    },
    {
      "bufferView": 1,
      "byteOffset": 67096,
      "componentType": 5126,
      "count": 573,
      "max": [
        0.9900934100151062,
        0.9810967445373535
      ],
      "min": [
        0.0340304970741272,
        0.2881031930446625
      ],
      "type": "VEC2"
    },
    {
      "bufferView": 0,
      "byteOffset": 79152,
      "componentType": 5125,
      "count": 1284,
      "type": "SCALAR"
    }
  ],
  "asset": {
    "extras": {
      "author": "_SeF_ (https://sketchfab.com/_SeF_)",
      "license": "CC-BY-4.0 (http://creativecommons.org/licenses/by/4.0/)",
      "source": "https://sketchfab.com/3d-models/glasses-e4399b7dada04f7ab837420d8051a965",
      "title": "Glasses"
    },
    "generator": "Sketchfab-12.66.0",
    "version": "2.0"
  },
  "bufferViews": [
    {
      "buffer": 0,
      "byteLength": 84288,
      "name": "floatBufferViews",
      "target": 34963
    },
    {
      "buffer": 0,
      "byteLength": 71680,
      "byteOffset": 84288,
      "byteStride": 8,
      "name": "floatBufferViews",
      "target": 34962
    },
    {
      "buffer": 0,
      "byteLength": 215040,
      "byteOffset": 155968,
      "byteStride": 12,
      "name": "floatBufferViews",
      "target": 34962
    },
    {
      "buffer": 0,
      "byteLength": 143360,
      "byteOffset": 371008,
      "byteStride": 16,
      "name": "floatBufferViews",
      "target": 34962
    }
  ],
  "buffers": [
    {
      "byteLength": 514368,
      "uri": "scene.bin"
    }
  ],
  "images": [
    {
      "uri": "textures/material_baseColor.png"
    },
    {
      "uri": "textures/material_metallicRoughness.png"
    },
    {
      "uri": "textures/material_normal.png"
    },
    {
      "uri": "textures/03_-_Default_baseColor.png"
    },
    {
      "uri": "textures/03_-_Default_metallicRoughness.png"
    },
    {
      "uri": "textures/03_-_Default_normal.png"
    }
  ],
  "materials": [
    {
      "alphaMode": "BLEND",
      "doubleSided": true,
      "name": "material",
      "normalTexture": {
        "index": 2
      },
      "occlusionTexture": {
        "index": 1
      },
      "pbrMetallicRoughness": {
        "baseColorTexture": {
          "index": 0
        },
        "metallicRoughnessTexture": {
          "index": 1
        }
      }
    },
    {
      "alphaMode": "BLEND",
      "doubleSided": true,
      "name": "03_-_Default",
      "normalTexture": {
        "index": 5
      },
      "occlusionTexture": {
        "index": 4
      },
      "pbrMetallicRoughness": {
        "baseColorTexture": {
          "index": 3
        },
        "metallicRoughnessTexture": {
          "index": 4
        }
      }
    }
  ],
  "meshes": [
    {
      "name": "glass_03_low_01_0",
      "primitives": [
        {
          "attributes": {
            "NORMAL": 1,
            "POSITION": 0,
            "TANGENT": 2,
            "TEXCOORD_0": 3
          },
          "indices": 4,
          "material": 0,
          "mode": 4
        }
      ]
    },
    {
      "name": "glass_01_low_01_0",
      "primitives": [
        {
          "attributes": {
            "NORMAL": 6,
            "POSITION": 5,
            "TANGENT": 7,
            "TEXCOORD_0": 8
          },
          "indices": 9,
          "material": 0,
          "mode": 4
        }
      ]
    },
    {
      "name": "glass_02_low_01_0",
      "primitives": [
        {
          "attributes": {
            "NORMAL": 11,
            "POSITION": 10,
            "TANGENT": 12,
            "TEXCOORD_0": 13
          },
          "indices": 14,
          "material": 0,
          "mode": 4
        }
      ]
    },
    {
      "name": "glass_04_low_03 - Default_0",
      "primitives": [
        {
          "attributes": {
            "NORMAL": 16,
            "POSITION": 15,
            "TANGENT": 17,
            "TEXCOORD_0": 18
          },
          "indices": 19,
          "material": 1,
          "mode": 4
        }
      ]
    }
  ],
  "nodes": [
    {
      "children": [
        1
      ],
      "matrix": [
        1.0,
        0.0,
        0.0,
        0.0,
        0.0,
        2.220446049250313e-16,
        -1.0,
        0.0,
        0.0,
        1.0,
        2.220446049250313e-16,
        0.0,
        0.0,
        0.0,
        0.0,
        1.0
      ],
      "name": "Sketchfab_model"
    },
    {
      "children": [
        2
      ],
      "matrix": [
        1.0,
        0.0,
        0.0,
        0.0,
        0.0,
        0.0,
        1.0,
        0.0,
        0.0,
        -1.0,
        0.0,
        0.0,
        0.0,
        0.0,
        0.0,
        1.0
      ],
      "name": "4930f8f631ca4cf0a00741996c24dde0.fbx"
    },
    {
      "children": [
        3,
        5,
        7,
        9
      ],
      "name": "RootNode"
    },
    {
      "children": [
        4
      ],
      "matrix": [
        1.0,
        0.0,
        0.0,
        0.0,
        0.0,
        2.220446049250313e-16,
        -1.0,
        0.0,
        0.0,
        1.0,
        2.220446049250313e-16,
        0.0,
        1.660980224609375,
        77.1957778930664,
        45.406593322753906,
        1.0
      ],
      "name": "glass_03_low"
    },
    {
      "mesh": 0,
      "name": "glass_03_low_01_0"
    },
    {
      "children": [
        6
      ],
      "matrix": [
        1.0,
        0.0,
        0.0,
        0.0,
        0.0,
        2.220446049250313e-16,
        -1.0,
        0.0,
        0.0,
        1.0,
        2.220446049250313e-16,
        0.0,
        1.660980224609375,
        77.1957778930664,
        45.406593322753906,
        1.0
      ],
      "name": "glass_01_low"
    },
    {
      "mesh": 1,
      "name": "glass_01_low_01_0"
    },
    {
      "children": [
        8
      ],
      "matrix": [
        1.0,
        0.0,
        0.0,
        0.0,
        0.0,
        2.220446049250313e-16,
        -1.0,
        0.0,
        0.0,
        1.0,
        2.220446049250313e-16,
        0.0,
        1.660980224609375,
        77.1957778930664,
        45.406593322753906,
        1.0
      ],
      "name": "glass_02_low"
    },
    {
      "mesh": 2,
      "name": "glass_02_low_01_0"
    },
    {
      "children": [
        10
      ],
      "matrix": [
        1.0,
        0.0,
        0.0,
        0.0,
        0.0,
        2.220446049250313e-16,
        -1.0,
        0.0,
        0.0,
        1.0,
        2.220446049250313e-16,
        0.0,
        1.660980224609375,
        77.1957778930664,
        45.406593322753906,
        1.0
      ],
      "name": "glass_04_low"
    },
    {
      "mesh": 3,
      "name": "glass_04_low_03 - Default_0"
    }
  ],
  "samplers": [
    {
      "magFilter": 9729,
      "minFilter": 9987,
      "wrapS": 10497,
      "wrapT": 10497
    }
  ],
  "scene": 0,
  "scenes": [
    {
      "name": "Sketchfab_Scene",
      "nodes": [
        0
      ]
    }
  ],
  "textures": [
    {
      "sampler": 0,
      "source": 0
    },
    {
      "sampler": 0,
      "source": 1
    },
    {
      "sampler": 0,
      "source": 2
    },
    {
      "sampler": 0,
      "source": 3
    },
    {
      "sampler": 0,
      "source": 4
    },
    {
      "sampler": 0,
      "source": 5
    }
  ]
}
