{
  "accessors": [
    {
      "bufferView": 2,
      "componentType": 5126,
      "count": 65532,
      "max": [
        173.73291015625,
        169.2106170654297,
        293.4188232421875
      ],
      "min": [
        -197.29095458984375,
        -201.8582000732422,
        -68.78941345214844
      ],
      "type": "VEC3"
    },
    {
      "bufferView": 2,
      "byteOffset": 786384,
      "componentType": 5126,
      "count": 65532,
      "max": [
        0.999975860118866,
        0.9999805092811584,
        0.9999940991401672
      ],
      "min": [
        -0.9999862909317017,
        -0.9999852776527405,
        -0.9999694228172302
      ],
      "type": "VEC3"
    },
    {
      "bufferView": 1,
      "componentType": 5126,
      "count": 65532,
      "max": [
        0.9864789843559265,
        0.9026190042495728
      ],
      "min": [
        0.0035389999393373728,
        0.002520000096410513
      ],
      "type": "VEC2"
    },
    {
      "bufferView": 0,
      "componentType": 5125,
      "count": 283266,
      "type": "SCALAR"
    },
    {
      "bufferView": 2,
      "byteOffset": 1572768,
      "componentType": 5126,
      "count": 65532,
      "max": [
        190.36810302734375,
        173.7249755859375,
        287.9024353027344
      ],
      "min": [
        -194.0191650390625,
        -215.96168518066406,
        -75.57434844970703
      ],
      "type": "VEC3"
    },
    {
      "bufferView": 2,
      "byteOffset": 2359152,
      "componentType": 5126,
      "count": 65532,
      "max": [
        0.9999963045120239,
        0.9999726414680481,
        0.9999967217445374
      ],
      "min": [
        -0.9999457001686096,
        -0.9999644160270691,
        -0.9999988079071045
      ],
      "type": "VEC3"
    },
    {
      "bufferView": 1,
      "byteOffset": 524256,
      "componentType": 5126,
      "count": 65532,
      "max": [
        0.99065101146698,
        0.9451929926872253
      ],
      "min": [
        0.003531999886035919,
        0.01155600044876337
      ],
      "type": "VEC2"
    },
    {
      "bufferView": 0,
      "byteOffset": 1133064,
      "componentType": 5125,
      "count": 322347,
      "type": "SCALAR"
    },
    {
      "bufferView": 2,
      "byteOffset": 3145536,
      "componentType": 5126,
      "count": 65532,
      "max": [
        190.52667236328125,
        173.6924591064453,
        229.55799865722656
      ],
      "min": [
        -169.8129425048828,
        -197.0946502685547,
        -76.81269836425781
      ],
      "type": "VEC3"
    },
    {
      "bufferView": 2,
      "byteOffset": 3931920,
      "componentType": 5126,
      "count": 65532,
      "max": [
        0.9999340176582336,
        0.9999922513961792,
        0.9999973773956299
      ],
      "min": [
        -0.9999858140945435,
        -0.9999808669090271,
        -0.9999817609786987
      ],
      "type": "VEC3"
    },
    {
      "bufferView": 1,
      "byteOffset": 1048512,
      "componentType": 5126,
      "count": 65532,
      "max": [
        0.9838780164718628,
        0.995976984500885
      ],
      "min": [
        0.07608199864625931,
        0.0196710005402565
      ],
      "type": "VEC2"
    },
    {
      "bufferView": 0,
      "byteOffset": 2422452,
      "componentType": 5125,
      "count": 335334,
      "type": "SCALAR"
    },
    {
      "bufferView": 2,
      "byteOffset": 4718304,
      "componentType": 5126,
      "count": 65533,
      "max": [
        187.1725616455078,
        167.62867736816406,
        74.1990966796875
      ],
      "min": [
        -201.95777893066406,
        -219.4179229736328,
        -78.7757339477539
      ],
      "type": "VEC3"
    },
    {
      "bufferView": 2,
      "byteOffset": 5504700,
      "componentType": 5126,
      "count": 65533,
      "max": [
        0.9999303221702576,
        0.9990728497505188,
        0.9999970197677612
      ],
      "min": [
        -0.9999884366989136,
        -0.9999725222587585,
        -0.9999997615814209
      ],
      "type": "VEC3"
    },
    {
      "bufferView": 1,
      "byteOffset": 1572768,
      "componentType": 5126,
      "count": 65533,
      "max": [
        0.9156910181045532,
        0.9963650107383728
      ],
      "min": [
        0.00380500010214746,
        0.4395869970321655
      ],
      "type": "VEC2"
    },
    {
      "bufferView": 0,
      "byteOffset": 3763788,
      "componentType": 5125,
      "count": 348261,
      "type": "SCALAR"
    },
    {
      "bufferView": 2,
      "byteOffset": 6291096,
      "componentType": 5126,
      "count": 41187,
      "max": [
        167.3426513671875,
        144.42825317382813,
        287.811767578125
      ],
      "min": [
        -200.05726623535156,
        -221.09571838378906,
        -78.7757339477539
      ],
      "type": "VEC3"
    },
    {
      "bufferView": 2,
      "byteOffset": 6785340,
      "componentType": 5126,
      "count": 41187,
      "max": [
        0.9998592734336853,
        0.9999908804893494,
        0.9999990463256836
      ],
      "min": [
        -0.9996709227561951,
        -0.9999209046363831,
        -0.9999789595603943
      ],
      "type": "VEC3"
    },
    {
      "bufferView": 1,
      "byteOffset": 2097032,
      "componentType": 5126,
      "count": 41187,
      "max": [
        0.9899889826774597,
        0.9455900192260742
      ],
      "min": [
        0.07217399775981903,
        0.021769000217318535
      ],
      "type": "VEC2"
    },
    {
      "bufferView": 0,
      "byteOffset": 5156832,
      "componentType": 5125,
      "count": 210792,
      "type": "SCALAR"
    }
  ],
  "asset": {
    "extras": {
      "author": "The British Museum (https://sketchfab.com/britishmuseum)",
      "license": "CC-BY-NC-SA-4.0 (http://creativecommons.org/licenses/by-nc-sa/4.0/)",
      "source": "https://sketchfab.com/3d-models/fish-pond-9ddd7c5da4a74371b400e81e4cfbec0c",
      "title": "Fish-pond"
    },
    "generator": "Sketchfab-12.64.0",
    "version": "2.0"
  },
  "bufferViews": [
    {
      "buffer": 0,
      "byteLength": 6000000,
      "name": "floatBufferViews",
      "target": 34963
    },
    {
      "buffer": 0,
      "byteLength": 2426528,
      "byteOffset": 6000000,
      "byteStride": 8,
      "name": "floatBufferViews",
      "target": 34962
    },
    {
      "buffer": 0,
      "byteLength": 7279584,
      "byteOffset": 8426528,
      "byteStride": 12,
      "name": "floatBufferViews",
      "target": 34962
    }
  ],
  "buffers": [
    {
      "byteLength": 15706112,
      "uri": "scene.bin"
    }
  ],
  "images": [
    {
      "uri": "textures/material_0_baseColor.jpeg"
    }
  ],
  "materials": [
    {
      "doubleSided": true,
      "name": "material_0",
      "pbrMetallicRoughness": {
        "baseColorTexture": {
          "index": 0
        },
        "metallicFactor": 0.0,
        "roughnessFactor": 0.4376586748
      }
    }
  ],
  "meshes": [
    {
      "name": "Object_0",
      "primitives": [
        {
          "attributes": {
            "NORMAL": 1,
            "POSITION": 0,
            "TEXCOORD_0": 2
          },
          "indices": 3,
          "material": 0,
          "mode": 4
        }
      ]
    },
    {
      "name": "Object_1",
      "primitives": [
        {
          "attributes": {
            "NORMAL": 5,
            "POSITION": 4,
            "TEXCOORD_0": 6
          },
          "indices": 7,
          "material": 0,
          "mode": 4
        }
      ]
    },
    {
      "name": "Object_2",
      "primitives": [
        {
          "attributes": {
            "NORMAL": 9,
            "POSITION": 8,
            "TEXCOORD_0": 10
          },
          "indices": 11,
          "material": 0,
          "mode": 4
        }
      ]
    },
    {
      "name": "Object_3",
      "primitives": [
        {
          "attributes": {
            "NORMAL": 13,
            "POSITION": 12,
            "TEXCOORD_0": 14
          },
          "indices": 15,
          "material": 0,
          "mode": 4
        }
      ]
    },
    {
      "name": "Object_4",
      "primitives": [
        {
          "attributes": {
            "NORMAL": 17,
            "POSITION": 16,
            "TEXCOORD_0": 18
          },
          "indices": 19,
          "material": 0,
          "mode": 4
        }
      ]
    }
  ],
  "nodes": [
    {
      "children": [
        1
      ],
      "matrix": [
        1.0,
        0.0,
        0.0,
        0.0,
        0.0,
        2.220446049250313e-16,
        -1.0,
        0.0,
        0.0,
        1.0,
        2.220446049250313e-16,
        0.0,
        0.0,
        0.0,
        0.0,
        1.0
      ],
      "name": "Sketchfab_model"
    },
    {
      "children": [
        2,
        3,
        4,
        5,
        6
      ],
      "name": "RRC8592.obj.cleaner.materialmerger.gles"
    },
    {
      "mesh": 0,
      "name": "Object_2"
    },
    {
      "mesh": 1,
      "name": "Object_3"
    },
    {
      "mesh": 2,
      "name": "Object_4"
    },
    {
      "mesh": 3,
      "name": "Object_5"
    },
    {
      "mesh": 4,
      "name": "Object_6"
    }
  ],
  "samplers": [
    {
      "magFilter": 9729,
      "minFilter": 9987,
      "wrapS": 10497,
      "wrapT": 10497
    }
  ],
  "scene": 0,
  "scenes": [
    {
      "name": "Sketchfab_Scene",
      "nodes": [
        0
      ]
    }
  ],
  "textures": [
    {
      "sampler": 0,
      "source": 0
    }
  ]
}
